# xmcd CD database file
#
# Track frame offsets:
#	150
#	27182
#	51023
#	73743
#	89048
#
# Disc length: 1598 seconds
#
# Revision: 0
# Processed by: cddbd v1.5.2PL0 Copyright (c) Steve Scherf et al.
# Submitted via: CDex 1.70beta2
#
DISCID=40063c05
DTITLE=compilation - cinq morceaux de printemps
DYEAR=2009
DGENRE=Jazz
TTITLE0=Laurent Coq - merry go round
TTITLE1=Fly - Elena Berenjena
TTITLE2=Emile Parisien Quartet - Darwin a la montagne
TTITLE3=Andy Sheppard - Bing
TTITLE4=Louis Sclavis - Les doutes du Cyclope
EXTD=YEAR: 2009
EXTT0=
EXTT1=
EXTT2=
EXTT3=
EXTT4=
PLAYORDER=
